<svg width="21" height="20" viewBox="0 0 21 20" fill="none" xmlns="http://www.w3.org/2000/svg">
<path d="M10.5 0.499512C4.975 0.499512 0.5 4.86119 0.5 10.2406C0.5 14.5453 3.365 18.1957 7.3375 19.4827C7.8375 19.5744 8.02083 19.2729 8.02083 19.0143C8.02083 18.783 8.0125 18.1701 8.00833 17.358C5.22667 17.9454 4.64 16.0512 4.64 16.0512C4.185 14.9269 3.5275 14.6262 3.5275 14.6262C2.62167 14.0224 3.5975 14.0347 3.5975 14.0347C4.60167 14.1025 5.12917 15.0384 5.12917 15.0384C6.02083 16.5278 7.47 16.0975 8.04167 15.8488C8.13167 15.2185 8.38917 14.7898 8.675 14.5461C6.45417 14.3024 4.12 13.4648 4.12 9.73255C4.12 8.66939 4.5075 7.80036 5.14917 7.11885C5.03667 6.87268 4.69917 5.88221 5.23667 4.54067C5.23667 4.54067 6.07417 4.27963 7.98667 5.53939C8.78667 5.32296 9.63667 5.21557 10.4867 5.21062C11.3367 5.21557 12.1867 5.32296 12.9867 5.53939C14.8867 4.27963 15.7242 4.54067 15.7242 4.54067C16.2617 5.88221 15.9242 6.87268 15.8242 7.11885C16.4617 7.80036 16.8492 8.66939 16.8492 9.73255C16.8492 13.4747 14.5117 14.2983 12.2867 14.5378C12.6367 14.8303 12.9617 15.4275 12.9617 16.3403C12.9617 17.6439 12.9492 18.6913 12.9492 19.0077C12.9492 19.263 13.1242 19.5678 13.6367 19.4703C17.6375 18.1916 20.5 14.5386 20.5 10.2406C20.5 4.86119 16.0225 0.499512 10.5 0.499512Z" fill="#212121"/>
</svg>
